# xmcd
#
# Track frame offsets: 
#        150
#        9825
#        28707
#        52557
#
# Disc length: 936 seconds
#
# Revision: 0
# Processed by: cddbd v1.5.1PL2 Copyright (c) Steve Scherf et al.
# Submitted via: ExactAudioCopy v0.95b2
#
DISCID=1b03a604
DTITLE=James Brown - Night and Day
DYEAR=1997
DGENRE=Blues
TTITLE0=Papa's Got A Brand New Bag
TTITLE1=Get Up Offa That Thing
TTITLE2=Get Up, I Feel Like Being A Sex Machine
TTITLE3=Can't Get Any Harder (Radio Mix)
EXTD=
EXTT0=
EXTT1=
EXTT2=
EXTT3=
PLAYORDER=
